<svg id="icon" xmlns="http://www.w3.org/2000/svg" viewBox="0 0 16 16"><defs><style>.cls-1{fill:#6d6d6d;}</style></defs><title>i</title><g id="gear"><path id="Fill-45" class="cls-1" d="M8,11.3A3.3,3.3,0,1,1,11.3,8,3.31,3.31,0,0,1,8,11.3H8ZM8,5.39A2.61,2.61,0,1,0,10.61,8,2.62,2.62,0,0,0,8,5.39H8Z"/><path id="Fill-46" class="cls-1" d="M9,15H7L6.44,13.29a5.49,5.49,0,0,1-1.08-.45l-1.61.81-1.4-1.4,0.81-1.61a5.48,5.48,0,0,1-.45-1.08L1,9V7l1.71-.57a5.48,5.48,0,0,1,.45-1.08L2.35,3.75l1.4-1.4L5.36,3.16a5.49,5.49,0,0,1,1.08-.45L7,1H9L9.56,2.71a5.5,5.5,0,0,1,1.08.45l1.61-.81,1.4,1.4L12.84,5.36a5.48,5.48,0,0,1,.45,1.08L15,7V9l-1.71.57a5.48,5.48,0,0,1-.45,1.08l0.81,1.61-1.4,1.4-1.61-.81a5.5,5.5,0,0,1-1.08.45L9,15H9Zm-1.48-.69h1L9,12.72l0.18,0a4.81,4.81,0,0,0,1.25-.52l0.16-.1,1.5,0.75,0.7-.7-0.75-1.5,0.1-.16a4.82,4.82,0,0,0,.52-1.25l0-.18,1.59-.53v-1L12.72,7l0-.18a4.82,4.82,0,0,0-.52-1.25l-0.1-.16,0.75-1.5-0.7-.7-1.5.75-0.16-.1A4.81,4.81,0,0,0,9.2,3.32L9,3.28,8.49,1.69h-1L7,3.28l-0.18,0a4.81,4.81,0,0,0-1.25.52l-0.16.1-1.5-.75-0.7.7,0.75,1.5-0.1.16A4.82,4.82,0,0,0,3.32,6.8L3.28,7l-1.59.53v1L3.28,9l0,0.18a4.82,4.82,0,0,0,.52,1.25l0.1,0.16-0.75,1.5,0.7,0.7,1.5-.75,0.16,0.1a4.81,4.81,0,0,0,1.25.52l0.18,0,0.53,1.59h0Z"/></g></svg>