<svg id="icon" xmlns="http://www.w3.org/2000/svg" viewBox="0 0 16 16"><defs><style>.cls-1{fill:#6d6d6d;}</style></defs><title>i</title><path class="cls-1" d="M8,0.74c3.59,0,6.5.77,6.5,1.72V3.22c0,1-2.91,1.72-6.5,1.72S1.5,4.17,1.5,3.22V2.46C1.5,1.51,4.41.74,8,.74Zm6.5,12.81c0,1-2.91,1.72-6.5,1.72s-6.5-.77-6.5-1.72V11.25C1.5,12.2,4.41,13,8,13s6.5-.77,6.5-1.72v2.29Zm0-3.44c0,1-2.91,1.72-6.5,1.72s-6.5-.77-6.5-1.72V7.81c0,1,2.91,1.72,6.5,1.72s6.5-.77,6.5-1.72V10.1Zm0-3.44c0,1-2.91,1.72-6.5,1.72S1.5,7.61,1.5,6.66V4.37c0,1,2.91,1.72,6.5,1.72s6.5-.77,6.5-1.72V6.66Z"/></svg>