<svg id="icon" xmlns="http://www.w3.org/2000/svg" viewBox="0 0 16 16"><defs><style>.cls-1{fill:#fff;}</style></defs><title>i</title><g id="share-apple"><path id="Fill-74" class="cls-1" d="M10.06,12.53L10.56,13,8,15.6,5.44,13l0.51-.51L8,14.59l2.06-2.05"/><path id="Fill-75" class="cls-1" d="M7.62,7H8.38v8.08H7.62V7Z"/><path id="Fill-76" class="cls-1" d="M11.85,2.4A1.16,1.16,0,0,1,13,3.55v6.92a1.16,1.16,0,0,1-1.15,1.15H9.15V10.86h2.69a0.39,0.39,0,0,0,.38-0.38V3.55a0.39,0.39,0,0,0-.38-0.38H4.15a0.39,0.39,0,0,0-.38.38v6.92a0.39,0.39,0,0,0,.38.38H6.85v0.77H4.15A1.16,1.16,0,0,1,3,10.48V3.55A1.16,1.16,0,0,1,4.15,2.4h7.69"/></g></svg>