<svg id="icon" xmlns="http://www.w3.org/2000/svg" viewBox="0 0 16 16"><defs><style>.cls-1{fill:#fff;}</style></defs><title>i</title><g id="pencil"><path id="Fill-168" class="cls-1" d="M3,13L3.86,9.54,9.13,4.28l2.59,2.59L6.46,12.14,3,13H3ZM4.46,9.88L3.91,12.09l2.22-.55,4.67-4.67L9.13,5.21,4.46,9.88h0Z"/><path id="Fill-169" class="cls-1" d="M5.88,11.94a2.5,2.5,0,0,0-1.82-1.82l0.16-.64a3.16,3.16,0,0,1,2.3,2.3l-0.64.16"/><path id="Fill-170" class="cls-1" d="M5.81,10.65l-0.47-.47L10,5.57,10.43,6,5.81,10.65"/><path id="Fill-171" class="cls-1" d="M3.45,12.55l1-.26a1.06,1.06,0,0,0-.77-0.77l-0.26,1"/><path id="Fill-172" class="cls-1" d="M12,6.63L9.37,4l1-1,0.16,0A2.81,2.81,0,0,1,13,5.43l0,0.16-1,1h0ZM10.3,4L12,5.7l0.33-.33A2.15,2.15,0,0,0,10.64,3.7L10.3,4h0Z"/></g></svg>