<svg id="icon" xmlns="http://www.w3.org/2000/svg" viewBox="0 0 16 16"><defs><style>.cls-1{fill:#fff;}</style></defs><title>i</title><g id="share-apple"><path id="Fill-74" class="cls-1" d="M10.06,3.47L8,1.41,5.95,3.47,5.44,3,8,0.4,10.56,3l-0.51.51"/><path id="Fill-75" class="cls-1" d="M7.62,0.91H8.38V9H7.62V0.91Z"/><path id="Fill-76" class="cls-1" d="M11.85,13.6H4.15A1.16,1.16,0,0,1,3,12.45V5.52A1.16,1.16,0,0,1,4.15,4.37H6.85V5.14H4.15a0.39,0.39,0,0,0-.38.38v6.92a0.39,0.39,0,0,0,.38.38h7.69a0.39,0.39,0,0,0,.38-0.38V5.52a0.39,0.39,0,0,0-.38-0.38H9.15V4.37h2.69A1.16,1.16,0,0,1,13,5.52v6.92a1.16,1.16,0,0,1-1.15,1.15"/></g></svg>