<svg id="icon" xmlns="http://www.w3.org/2000/svg" viewBox="0 0 16 16"><defs><style>.cls-1{fill:#c1c1c1;}.cls-2{fill:#fff;}</style></defs><title>i</title><circle class="cls-1" cx="8" cy="8" r="8"/><path class="cls-2" d="M8.23,9L4.55,4.88l-0.23.56h7.36l-0.23-.56L7.77,9C7.49,9.35,8,9.82,8.23,9.5l3.68-4.16a0.33,0.33,0,0,0-.23-0.56H4.32a0.33,0.33,0,0,0-.23.56L7.77,9.5C8,9.82,8.51,9.35,8.23,9Z"/><path class="cls-2" d="M7.67,9.13v3.2a0.33,0.33,0,0,0,.66,0V9.13a0.33,0.33,0,0,0-.66,0h0Z"/><polyline class="cls-2" points="5.56 6.72 4.32 5.17 11.68 5.17 10.44 6.72"/></svg>