<svg id="icon" xmlns="http://www.w3.org/2000/svg" viewBox="0 0 14 14"><defs><style>.cls-1{fill:#6d6d6d;}</style></defs><title>i</title><path class="cls-1" d="M3.85,9.41L4.26,9A6,6,0,0,1,2.51,7.16,5.31,5.31,0,0,1,6.92,4.48a4.64,4.64,0,0,1,1.57.27l0.43-.44a5.26,5.26,0,0,0-2-.38A5.83,5.83,0,0,0,2,7a0.27,0.27,0,0,0,0,.25A6.34,6.34,0,0,0,3.85,9.41Z"/><path class="cls-1" d="M10.05,4.94l-0.4.4a6,6,0,0,1,1.69,1.81A5.31,5.31,0,0,1,6.92,9.83a4.65,4.65,0,0,1-1.5-.25L5,10a5.27,5.27,0,0,0,1.93.36,5.83,5.83,0,0,0,5-3.11,0.27,0.27,0,0,0,0-.25A6.35,6.35,0,0,0,10.05,4.94Z"/><path class="cls-1" d="M10.42,2.88L2.68,10.68a0.31,0.31,0,0,0,.44.44l7.75-7.79a0.31,0.31,0,0,0-.44-0.44h0Z"/><path class="cls-1" d="M5.1,8.16A2.09,2.09,0,0,1,7.92,5.32l0.4-.4A2.63,2.63,0,0,0,4.7,8.56Z"/><path class="cls-1" d="M8.78,6.21A2.08,2.08,0,0,1,6,9l-0.4.4a2.63,2.63,0,0,0,3.6-3.62Z"/><path class="cls-1" d="M6.92,6.25H7L7.44,5.8a1.44,1.44,0,0,0-.52-0.1A0.27,0.27,0,0,0,6.92,6.25Z"/><path class="cls-1" d="M7.83,7.17a0.91,0.91,0,0,1-.88.89l-0.47.47a1.44,1.44,0,0,0,.45.08A1.46,1.46,0,0,0,8.38,7.16,1.43,1.43,0,0,0,8.3,6.7Z"/><path class="cls-1" d="M6,7.23s0,0,0-.07a0.27,0.27,0,1,0-.55,0,1.44,1.44,0,0,0,.1.53Z"/></svg>