<svg id="icon" xmlns="http://www.w3.org/2000/svg" viewBox="0 0 16 16"><defs><style>.cls-1{fill:#3eb3da;}</style></defs><title>i</title><path id="Fill-74" class="cls-1" d="M12.26,5.83l0.54-.53L15.5,8l-2.71,2.71-0.54-.53L14.43,8,12.26,5.83"/><path id="Fill-75" class="cls-1" d="M7.17,8.41V7.59H15V8.41H7.17Z"/><path id="Fill-76" class="cls-1" d="M7.18,12.47h2.91a0.41,0.41,0,0,0,.41-0.41V9.22h0.81v2.85a1.22,1.22,0,0,1-1.22,1.22H7.18"/><path id="Fill-76-2" data-name="Fill-76" class="cls-1" d="M7.18,2.71h2.91a1.22,1.22,0,0,1,1.22,1.22V6.78H10.49V3.93a0.41,0.41,0,0,0-.41-0.41H7.18"/><path class="cls-1" d="M6.25,14.22L1.8,13.5A1.55,1.55,0,0,1,.5,12V3.92a1.42,1.42,0,0,1,1.19-1.4l4.56-.74V14.22ZM5.38,7.59A0.37,0.37,0,1,0,5.75,8,0.37,0.37,0,0,0,5.38,7.59Z"/></svg>