<svg id="icon" xmlns="http://www.w3.org/2000/svg" viewBox="0 0 16 16"><defs><style>.cls-1{fill:#3eb3da;}</style></defs><title>i</title><g id="share-apple"><path id="Fill-74" class="cls-1" d="M10.47,12.24l0.61,0.61L8,15.92,4.93,12.85l0.61-.61L8,14.7l2.47-2.47"/><path id="Fill-75" class="cls-1" d="M7.54,5.62H8.46v9.69H7.54V5.62Z"/><path id="Fill-76" class="cls-1" d="M12.62,0.08A1.39,1.39,0,0,1,14,1.47V9.77a1.39,1.39,0,0,1-1.38,1.38H9.38V10.24h3.23a0.46,0.46,0,0,0,.46-0.46V1.47A0.46,0.46,0,0,0,12.62,1H3.38a0.46,0.46,0,0,0-.46.46V9.77a0.46,0.46,0,0,0,.46.46H6.62v0.92H3.38A1.39,1.39,0,0,1,2,9.77V1.47A1.39,1.39,0,0,1,3.38.08h9.23"/></g></svg>