<svg id="icon" xmlns="http://www.w3.org/2000/svg" viewBox="0 0 16 16"><defs><style>.cls-1{fill:#c1c1c1;}.cls-2{fill:#fff;}</style></defs><title>i</title><circle class="cls-1" cx="8.01" cy="8" r="8"/><g id="lock"><path id="Fill-66" class="cls-2" d="M10.59,7.41H10V6.26A2,2,0,1,0,6,6.26V7.41H5.43V6.26a2.58,2.58,0,0,1,5.16,0V7.41"/><path id="Fill-67" class="cls-2" d="M10.32,12.32H5.7a0.87,0.87,0,0,1-.87-0.87V8A0.87,0.87,0,0,1,5.7,7.12h4.62a0.87,0.87,0,0,1,.87.87v3.46a0.87,0.87,0,0,1-.87.87h0ZM5.7,7.7A0.29,0.29,0,0,0,5.41,8v3.46a0.29,0.29,0,0,0,.29.29h4.62a0.29,0.29,0,0,0,.29-0.29V8a0.29,0.29,0,0,0-.29-0.29H5.7Z"/><path id="Fill-68" class="cls-2" d="M8.59,8.86A0.58,0.58,0,1,1,8,8.28a0.58,0.58,0,0,1,.58.58"/><path id="Fill-69" class="cls-2" d="M8.15,8.86H7.86L7.58,10.59H8.44L8.15,8.86"/></g></svg>