<svg id="icon" xmlns="http://www.w3.org/2000/svg" viewBox="0 0 14 14"><defs><style>.cls-1{fill:#6d6d6d;}</style></defs><title>i</title><g id="lock"><path id="Fill-66" class="cls-1" d="M10.25,6.26H9.57V4.81a2.57,2.57,0,1,0-5.14,0V6.26H3.75V4.81a3.25,3.25,0,0,1,6.49,0V6.26"/><path id="Fill-67" class="cls-1" d="M9.91,12.44H4.09A1.09,1.09,0,0,1,3,11.35V7A1.09,1.09,0,0,1,4.09,5.9H9.91A1.09,1.09,0,0,1,11,7v4.36a1.09,1.09,0,0,1-1.09,1.09h0ZM4.09,6.62A0.36,0.36,0,0,0,3.73,7v4.36a0.36,0.36,0,0,0,.36.36H9.91a0.36,0.36,0,0,0,.36-0.36V7a0.36,0.36,0,0,0-.36-0.36H4.09Z"/><path id="Fill-68" class="cls-1" d="M7.73,8.08A0.73,0.73,0,1,1,7,7.35a0.73,0.73,0,0,1,.73.73"/><path id="Fill-69" class="cls-1" d="M7.18,8.08H6.82L6.45,10.26H7.55L7.18,8.08"/></g></svg>