<svg id="icon" xmlns="http://www.w3.org/2000/svg" viewBox="0 0 16 16"><defs><style>.cls-1{fill:#fff;}</style></defs><title>i</title><g id="trash"><path id="Fill-6" class="cls-1" d="M6.08,5.68H6.85v6.15H6.08V5.68Z"/><path id="Fill-7" class="cls-1" d="M7.62,5.68H8.38v6.15H7.62V5.68Z"/><path id="Fill-8" class="cls-1" d="M9.15,5.68H9.92v6.15H9.15V5.68Z"/><path id="Fill-9" class="cls-1" d="M3,3.37H13V4.14H3V3.37Z"/><path id="Fill-10" class="cls-1" d="M9.9,3.76H9.18V3a0.41,0.41,0,0,0-.41-0.41H7.23A0.41,0.41,0,0,0,6.82,3V3.76H6.1V3A1.13,1.13,0,0,1,7.23,1.86H8.77A1.13,1.13,0,0,1,9.9,3V3.76"/><path id="Fill-11" class="cls-1" d="M10.31,14.14H5.69A1.24,1.24,0,0,1,4.48,13L3.77,3.79l0.77-.06L5.25,13a0.47,0.47,0,0,0,.44.41h4.62A0.47,0.47,0,0,0,10.75,13l0.71-9.23,0.77,0.06L11.52,13a1.24,1.24,0,0,1-1.21,1.12"/></g></svg>