<svg id="icon" xmlns="http://www.w3.org/2000/svg" viewBox="0 0 20 20"><defs><style>.cls-1{fill:#f66;}</style></defs><title>i</title><g id="trash"><path id="Fill-6" class="cls-1" d="M6.92,6.29H8.15v9.85H6.92V6.29Z"/><path id="Fill-7" class="cls-1" d="M9.38,6.29h1.23v9.85H9.38V6.29Z"/><path id="Fill-8" class="cls-1" d="M11.85,6.29h1.23v9.85H11.85V6.29Z"/><path id="Fill-9" class="cls-1" d="M2,2.59H18V3.82H2V2.59Z"/><path id="Fill-10" class="cls-1" d="M13,3.21H11.89V2a0.66,0.66,0,0,0-.66-0.66H8.77A0.66,0.66,0,0,0,8.11,2V3.21H7V2A1.81,1.81,0,0,1,8.77.18h2.46A1.81,1.81,0,0,1,13,2V3.21"/><path id="Fill-11" class="cls-1" d="M13.69,19.82H6.31A2,2,0,0,1,4.37,18L3.23,3.26l1.23-.09L5.6,17.93a0.74,0.74,0,0,0,.71.66h7.38a0.74,0.74,0,0,0,.71-0.66L15.54,3.16l1.23,0.09L15.63,18a2,2,0,0,1-1.94,1.8"/></g></svg>