<svg id="icon" xmlns="http://www.w3.org/2000/svg" viewBox="0 0 18 18"><defs><style>.cls-1{fill:#fff;}</style></defs><title>i</title><path class="cls-1" d="M9,1.18c3.87,0,7,.83,7,1.85V3.85c0,1-3.13,1.85-7,1.85S2,4.88,2,3.85V3C2,2,5.13,1.18,9,1.18ZM16,15c0,1-3.13,1.85-7,1.85S2,16,2,15V12.5c0,1,3.13,1.85,7,1.85s7-.83,7-1.85V15Zm0-3.71c0,1-3.13,1.85-7,1.85s-7-.83-7-1.85V8.79c0,1,3.13,1.85,7,1.85s7-.83,7-1.85v2.47Zm0-3.71c0,1-3.13,1.85-7,1.85S2,8.58,2,7.56V5.09c0,1,3.13,1.85,7,1.85s7-.83,7-1.85V7.56Z"/></svg>