<svg id="icon" xmlns="http://www.w3.org/2000/svg" viewBox="0 0 98 80"><defs><style>.cls-1{fill:#2e4051;}</style></defs><title>i</title><path id="Fill-74" class="cls-1" d="M76.36,26l3.44-3.43L97.19,40,79.8,57.39,76.36,54l14-14-14-14"/><path id="Fill-75" class="cls-1" d="M43.7,42.61V37.38H93.75v5.22H43.7Z"/><path id="Fill-76" class="cls-1" d="M43.7,68.74h18.7A2.61,2.61,0,0,0,65,66.12V47.84h5.22V66.12A7.85,7.85,0,0,1,62.41,74H43.7"/><path id="Fill-76-2" data-name="Fill-76" class="cls-1" d="M43.7,6h18.7a7.85,7.85,0,0,1,7.84,7.84V32.16H65V13.88a2.61,2.61,0,0,0-2.61-2.61H43.7"/><path class="cls-1" d="M37.72,79.94L9.15,75.31a9.93,9.93,0,0,1-8.34-9.8V13.78a9.09,9.09,0,0,1,7.64-9L37.72,0.06V79.94ZM32.14,37.39a2.41,2.41,0,1,0,2.41,2.41A2.41,2.41,0,0,0,32.14,37.39Z"/></svg>