<svg id="icon" xmlns="http://www.w3.org/2000/svg" viewBox="0 0 14 14"><defs><style>.cls-1{fill:#6d6d6d;}</style></defs><title>i</title><path class="cls-1" d="M7.23,7.32L3.55,3.16l-0.23.56h7.36l-0.23-.56L6.77,7.32C6.49,7.64,7,8.1,7.23,7.79l3.68-4.16a0.33,0.33,0,0,0-.23-0.56H3.32a0.33,0.33,0,0,0-.23.56L6.77,7.79C7,8.1,7.51,7.64,7.23,7.32Z"/><path class="cls-1" d="M6.67,7.41v3.2a0.33,0.33,0,0,0,.66,0V7.41a0.33,0.33,0,0,0-.66,0h0Z"/><polyline class="cls-1" points="4.56 5.01 3.32 3.45 10.68 3.45 9.44 5.01"/></svg>