<svg id="icon" xmlns="http://www.w3.org/2000/svg" viewBox="0 0 16 16"><defs><style>.cls-1{fill:#c1c1c1;}.cls-2{fill:#fff;}</style></defs><title>i</title><circle class="cls-1" cx="8" cy="8" r="8"/><path class="cls-2" d="M5.15,10.17l0.37-.37A5.46,5.46,0,0,1,3.95,8.13a4.8,4.8,0,0,1,4-2.42A4.19,4.19,0,0,1,9.35,6l0.39-.39a4.76,4.76,0,0,0-1.81-.35A5.27,5.27,0,0,0,3.44,8a0.25,0.25,0,0,0,0,.22A5.73,5.73,0,0,0,5.15,10.17Z"/><path class="cls-2" d="M10.76,6.13l-0.36.37a5.46,5.46,0,0,1,1.52,1.64,4.8,4.8,0,0,1-4,2.42,4.2,4.2,0,0,1-1.35-.22l-0.39.4a4.76,4.76,0,0,0,1.75.32,5.26,5.26,0,0,0,4.49-2.81,0.25,0.25,0,0,0,0-.22A5.74,5.74,0,0,0,10.76,6.13Z"/><path class="cls-2" d="M11.09,3.91l-7,7a0.28,0.28,0,0,0,.4.4l7-7a0.28,0.28,0,0,0-.4-0.4h0Z"/><path class="cls-2" d="M6.28,9A1.89,1.89,0,0,1,8.83,6.48l0.36-.36A2.38,2.38,0,0,0,5.92,9.41Z"/><path class="cls-2" d="M9.61,7.28A1.88,1.88,0,0,1,7.09,9.82l-0.36.37A2.38,2.38,0,0,0,10,6.92Z"/><path class="cls-2" d="M7.93,7.31H8L8.4,6.91a1.31,1.31,0,0,0-.47-0.09A0.25,0.25,0,0,0,7.93,7.31Z"/><path class="cls-2" d="M8.75,8.15A0.82,0.82,0,0,1,8,9l-0.43.43a1.3,1.3,0,0,0,.41.07A1.32,1.32,0,0,0,9.25,8.13a1.3,1.3,0,0,0-.07-0.41Z"/><path class="cls-2" d="M7.12,8.2s0,0,0-.06a0.25,0.25,0,1,0-.5,0,1.3,1.3,0,0,0,.09.48Z"/></svg>